<svg xmlns="http://www.w3.org/2000/svg" viewBox="0 0 235 48" width="470" height="96">
  <defs>
    <linearGradient id="grad" x1="0" y1="0" x2="1" y2="1">
      <stop offset="0%" stop-color="#C0392B"/>
      <stop offset="100%" stop-color="#F39C12"/>
    </linearGradient>
    <linearGradient id="gradH" x1="0" y1="0" x2="1" y2="0">
      <stop offset="0%" stop-color="#C0392B"/>
      <stop offset="100%" stop-color="#F39C12"/>
    </linearGradient>
  </defs>

  <!-- CAVALIER -->
  <circle cx="13" cy="6" r="4.5" fill="url(#grad)"/>
  <path d="M13 10.5 C12 16 11 21 10 27" stroke="url(#grad)" stroke-width="2.2" fill="none" stroke-linecap="round"/>
  <path d="M12 15 C9 11 6 8 4 6" stroke="url(#grad)" stroke-width="2" fill="none" stroke-linecap="round"/>
  <path d="M13 16 C16 15 19 15 22 15" stroke="url(#grad)" stroke-width="2" fill="none" stroke-linecap="round"/>
  <path d="M10 27 C8 33 6 38 5 44" stroke="url(#grad)" stroke-width="2" fill="none" stroke-linecap="round"/>
  <path d="M10 27 C12 33 14 38 15 43" stroke="url(#grad)" stroke-width="2" fill="none" stroke-linecap="round"/>

  <!-- MAINS JOINTES -->
  <circle cx="22" cy="15" r="2" fill="url(#grad)" opacity="0.9"/>

  <!-- CAVALIÈRE -->
  <circle cx="31" cy="6" r="4.5" fill="url(#grad)"/>
  <path d="M31 10.5 C30.5 16 30 21 30 27" stroke="url(#grad)" stroke-width="2.2" fill="none" stroke-linecap="round"/>
  <path d="M31 15 C34 11 37 8 39 6" stroke="url(#grad)" stroke-width="2" fill="none" stroke-linecap="round"/>
  <path d="M30.5 16 C27 15 24 15 22 15" stroke="url(#grad)" stroke-width="2" fill="none" stroke-linecap="round"/>
  <path d="M30 27 C32 33 34 38 35 44" stroke="url(#grad)" stroke-width="2" fill="none" stroke-linecap="round"/>
  <path d="M30 27 C28 33 26 38 25 43" stroke="url(#grad)" stroke-width="2" fill="none" stroke-linecap="round"/>

  <!-- SÉPARATEUR -->
  <rect x="47" y="5" width="2" height="38" rx="1" fill="url(#grad)" opacity="0.6"/>

  <!-- TEXTE -->
  <text x="56" y="23" font-family="Dancing Script, cursive" font-size="20" font-weight="700" fill="#E74C3C">El</text>
  <line x1="56" y1="26" x2="78" y2="26" stroke="url(#gradH)" stroke-width="1.2" opacity="0.6"/>
  <text x="56" y="42" font-family="Playfair Display, serif" font-size="20" font-weight="900" fill="white" letter-spacing="2">ASTICO</text>
</svg>
